<?xml version="1.0" encoding="UTF-8"?>
<svg xmlns="http://www.w3.org/2000/svg" xmlns:svg="http://www.w3.org/2000/svg" width="1000" height="400" data-name="Layer 1">
  <defs>
    <style>.cls-1 {
        fill: #fff;
      }</style>
  </defs>
  <g class="layer">
    <title>Layer 1</title>
    <g id="svg_1" transform="translate(8 1) translate(-52 -337)">
      <path class="cls-1" d="m278.56,522.59l-51.06,0c6.03,-2.59 7.97,-11.63 8.4,-21.98l0,-49.77c0,-14.87 -10.77,-22.19 -21.11,-22.19c-16.16,0 -21.33,11.64 -22.62,17.24c1.08,5.6 1.94,11.85 1.94,19.6l0,35.55c0.21,9.91 2.58,18.96 8.4,21.54l-51.28,0c6.25,-2.59 8.19,-12.06 8.4,-22.41l0,-49.34c0,-26.29 -32.96,-28.01 -41.8,-10.34l0,61.83c0.65,9.48 2.8,17.88 8.4,20.25l-51.27,0c6.46,-2.59 8.4,-12.92 8.4,-23.91l0,-53.22c0,-9.26 -4.09,-23.27 -10.56,-26.07c0,0 30.59,3.23 45.03,-7.97l0,21.55c12.06,-15.08 57.95,-29.95 71.96,6.03c4.52,-8.83 20.47,-22.41 43.73,-22.41c18.75,0 36.63,12.06 36.63,48.91l0,35.55c0.43,9.91 2.59,18.96 8.4,21.54l0.01,0.02z" id="svg_2"></path>
      <path class="cls-1" d="m398.37,522.8l-8.4,0c-0.65,0 -10.34,0 -19.39,-0.22c-8.4,0 -15.08,-6.68 -15.08,-15.08l0,-1.29c-17.45,25.21 -62.7,29.52 -62.7,-3.23c0,-24.78 40.94,-38.78 62.48,-50.41c-1.51,-20.04 -12.28,-30.6 -23.27,-30.6c-14.22,0 -26.72,11.21 -16.59,16.81c4.52,2.8 7.54,7.75 7.54,13.36c0,8.83 -6.89,15.51 -15.3,15.51c-11.85,0 -15.73,-9.05 -15.73,-17.45c0,-15.3 15.08,-33.61 52.36,-33.61c25.85,0.43 45.03,13.14 45.67,38.13l0,46.32c0.22,9.91 2.59,19.17 8.4,21.76l0.01,0zm-42.88,-23.48l0,-42.23c-27.36,12.71 -27.36,33.18 -27.36,36.41c0,12.71 20.47,23.48 27.36,5.82z" id="svg_3"></path>
      <path class="cls-1" d="m506.96,437.92c-3.66,7.97 -13.14,10.99 -20.68,7.33c-5.17,-2.59 -8.4,-7.33 -8.83,-12.71c-0.64,-11.63 -20.03,-6.25 -20.68,8.4l0,61.4c0.65,9.48 2.8,17.88 8.4,20.25l-50.84,0c5.6,-2.37 7.76,-10.77 7.97,-20.25l0,-56.88c0,-9.26 -4.09,-23.27 -10.56,-26.07c0,0 30.59,3.23 45.03,-7.97l0,18.74c9.05,-16.8 29.73,-19.39 41.58,-13.79c7.11,3.66 13.58,11.2 8.62,21.55l-0.01,0z" id="svg_4"></path>
      <path class="cls-1" d="m571.6,432.53c-4.52,5.38 -8.19,12.49 -10.77,21.76l0.43,48.05c0.22,9.48 2.37,17.88 7.97,20.25l-50.84,0c5.6,-2.37 7.76,-10.77 7.97,-20.25l0,-56.23c0,-9.05 -4.09,-23.27 -10.56,-25.85c0,0 30.59,2.8 45.03,-8.4l0,26.07c8.83,-15.73 22.19,-22.19 33.61,-21.33c11.85,1.29 20.04,9.26 21.11,20.9c0.21,0.43 0.21,1.29 0.21,1.94l0,0.86c-0.21,7.97 -7.32,14.65 -15.73,14.65s-15.73,-6.9 -15.73,-15.51c0,-1.94 0.43,-3.66 1.29,-5.38l0,-0.22s0,-0.43 0.22,-0.64c3.88,-10.56 -7.33,-7.54 -14.22,-0.65l0.01,-0.02zm116.99,90.27l-8.4,0c-0.65,0 -10.13,-0.22 -18.96,-0.22s-15.51,-6.68 -15.51,-15.08l0,-1.51c-17.24,24.99 -62.48,29.09 -62.48,-3.45c0,-24.56 40.72,-38.78 62.48,-50.42c-1.94,-33.82 -27.15,-34.69 -27.15,-34.69c0,0 6.46,-1.08 18.96,-1.08c25.85,0 42.44,13.14 42.66,38.14l0,46.54c0.22,9.91 2.59,19.17 8.4,21.76l0,0.01zm-42.87,-23.7l0,-42.66c-27.15,12.93 -27.15,33.61 -27.15,36.63c0,12.93 20.47,23.48 27.15,6.03z" id="svg_5"></path>
      <path class="cls-1" d="m755.18,522.59l-51.06,0c6.46,-2.59 8.4,-12.92 8.4,-23.91l0,-53.22c0,-9.26 -4.31,-23.27 -10.56,-26.07c0,0 30.59,3.23 45.03,-7.97l0,90.92c0.43,9.48 2.59,17.88 8.19,20.25zm-45.89,-136.16c0,-10.56 8.62,-19.39 19.17,-19.39s19.39,8.83 19.39,19.39s-8.62,19.39 -19.39,19.39s-19.17,-8.83 -19.17,-19.39z" id="svg_6"></path>
      <path class="cls-1" d="m898.24,522.59l-51.28,0c5.82,-2.59 8.19,-11.85 8.4,-21.98l0,-49.77c0,-26.29 -32.96,-28.01 -41.8,-10.34l0,61.83c0.43,9.48 2.59,17.88 8.4,20.25l-51.27,0c6.46,-2.59 8.4,-12.92 8.4,-23.91l0,-53.22c0,-9.26 -4.31,-23.27 -10.56,-26.07c0,0 30.59,3.23 45.03,-7.97l0,21.55c14.44,-17.88 76.27,-35.55 76.27,32.53l0,35.12c0.21,10.34 2.15,19.39 8.4,21.98l0.01,0z" id="svg_7"></path>
      <path class="cls-1" d="m936.81,463.77c2.16,21.76 16.59,34.47 34.47,34.47c28.44,0 38.13,-19.39 38.13,-19.39c0,0 0.22,47.4 -50.41,47.4c-29.73,0 -50.2,-24.77 -50.2,-54.94s18.96,-54.94 50.2,-54.94s51.92,14.87 51.92,47.4l-74.11,0zm39.86,-4.31c-0.65,-21.55 -6.25,-38.56 -19.39,-38.56c-11.85,0 -20.68,15.94 -20.68,36.63l0,1.94l40.07,0l0,-0.01z" id="svg_8"></path>
    </g>
    <g id="svg_9" transform="translate(8 1) translate(-52 -337)">
      <path class="cls-1" d="m374.24,647.42c2.16,21.76 16.59,34.47 34.47,34.47c28.44,0 38.13,-19.39 38.13,-19.39c0,0 0.22,47.4 -50.41,47.4c-29.73,0 -50.2,-24.77 -50.2,-54.94s18.96,-54.94 50.2,-54.94s51.92,14.87 51.92,47.4l-74.11,0zm39.86,-4.31c-0.65,-21.55 -6.25,-38.56 -19.39,-38.56c-11.85,0 -20.68,15.94 -20.68,36.63l0,1.94l40.07,0l0,-0.01zm-14.87,-85.75l19.39,11.2l-27.58,24.56l-14.87,0l23.05,-35.76l0.01,0z" id="svg_10"></path>
      <path class="cls-1" d="m535.83,698.91c-8.4,15.73 -64.85,22.19 -65.5,-22.19l0,-54.08c0,-17.88 -8.62,-16.8 -8.62,-16.8l0,-4.09c13.14,0 31.67,-11.42 43.09,-42.66l0,42.66c30.38,-3.45 65.71,-46.32 98.46,-46.32c44.6,0 37.7,47.4 37.7,47.4c-2.59,-7.11 -17.45,-23.48 -46.54,-23.7c-37.49,-0.21 -54.51,24.35 -89.62,27.58l0,77.56c0,22.84 24.77,19.61 31.02,14.65l0.01,-0.01zm109.88,-43.74l0,0.22c0,32.1 -22.41,54.51 -59.46,54.51s-59.03,-22.41 -59.25,-54.51l0,-0.43c0.22,-32.32 22.41,-54.72 59.25,-54.72s59.46,22.41 59.46,54.72l0,0.21zm-34.47,0c0,-12.92 -2.8,-50.41 -24.99,-50.41s-24.77,37.49 -24.77,50.41s3.02,50.42 24.77,50.42s24.99,-37.7 24.99,-50.42z" id="svg_11"></path>
      <path class="cls-1" d="m711.87,706.24l-50.84,0c6.46,-2.59 8.4,-12.92 8.4,-23.91l0,-42.44c0,-24.13 -6.25,-28.65 -9.91,-35.55c-0.22,-0.43 -0.22,-0.65 0,-0.86c0.43,-0.43 0.64,-0.43 0.86,-0.43c5.38,1.94 21.33,6.47 43.52,-3.23l0,86.18c0.21,9.48 2.37,17.88 7.97,20.25l0,-0.01zm68.08,0l-50.85,0c6.47,-2.59 8.4,-12.92 8.4,-23.91l0,-91.78c0,-9.05 0.86,-16.59 -6.03,-13.79c-18.75,8.4 -31.89,12.06 -40.72,12.71c-16.37,1.08 -24.77,-8.83 -24.77,-19.39s8.62,-19.39 19.39,-19.39c5.6,0 10.13,2.37 14.01,6.25c9.26,9.48 6.46,22.19 20.68,18.53c13.14,-5.38 29.95,-13.57 51.49,-24.99l0.43,-0.21l0,135.73c0.22,9.48 2.37,17.88 7.97,20.25l0,-0.01z" id="svg_12"></path>
      <path class="cls-1" d="m821.33,647.42c2.16,21.76 16.59,34.47 34.47,34.47c28.44,0 38.13,-19.39 38.13,-19.39c0,0 0.22,47.4 -50.41,47.4c-29.73,0 -50.2,-24.77 -50.2,-54.94s18.96,-54.94 50.2,-54.94s51.92,14.87 51.92,47.4l-74.11,0zm39.86,-4.31c-0.65,-21.55 -6.25,-38.56 -19.39,-38.56c-11.85,0 -20.68,15.94 -20.68,36.63l0,1.94l40.07,0l0,-0.01zm-14.87,-85.75l19.39,11.2l-27.58,24.56l-14.87,0l23.05,-35.76l0.01,0z" id="svg_13"></path>
      <path class="cls-1" d="m936.81,647.42c2.16,21.76 16.59,34.47 34.47,34.47c28.44,0 38.13,-19.39 38.13,-19.39c0,0 0.22,47.4 -50.41,47.4c-29.73,0 -50.2,-24.77 -50.2,-54.94s18.96,-54.94 50.2,-54.94s51.92,14.87 51.92,47.4l-74.11,0zm39.86,-4.31c-0.65,-21.55 -6.25,-38.56 -19.39,-38.56c-11.85,0 -20.68,15.94 -20.68,36.63l0,1.94l40.07,0l0,-0.01z" id="svg_14"></path>
    </g>
    <g data-name="2RxkDQ" id="_2RxkDQ" transform="translate(8 1) translate(-52 -337)">
      <path class="cls-1" d="m278.06,585.63c0.58,3.18 -2.81,6.13 -5.02,8.15c-7.78,6.02 -15.9,11.82 -24.11,17.33c-5.4,3.53 -11.62,7.35 -6.63,14.26c6.85,9.64 14.06,18.9 20.26,28.89c5.38,9.69 1.51,13.91 -8.86,9.79c-11.19,-4.98 -22.25,-10.6 -33.93,-16.24c-3.09,-1.74 -5.75,-0.93 -6.99,2.46c-3.53,8.48 -6.7,16.37 -10.05,24.27c-2.13,4.73 -5,11.82 -10.9,12.14c-3.94,-0.69 -5.35,-5.58 -6.08,-9.04c-1.69,-8.4 -3.04,-16.76 -4.12,-25.39c-0.44,-2.84 -0.91,-6.2 -3.18,-8.12c-2.39,-1.93 -5.92,-2.05 -8.91,-2.33c-11.61,-0.99 -23.28,-1.59 -34.67,-3.66c-10.49,-2.53 -5.55,-9.52 1.3,-12.99c8.59,-4.36 17.56,-8.32 26.97,-12.7c3.96,-1.66 3.45,-4.48 1.13,-7.39c-6.15,-8.66 -11.67,-16.59 -17.59,-24.75c-0.97,-1.4 -1.9,-2.88 -2.45,-4.47c-2.75,-8.52 2.22,-11.46 9.87,-7.82c11.11,5.32 21.85,11.74 32.96,17.01c2.95,1.61 6.2,1.32 7.61,-2.04c4.1,-8.86 7.88,-17.64 12.07,-26.07c1.87,-3.43 4.49,-8.16 8.61,-8.77c7.79,2.18 8.21,21.9 9.5,29.01c0.69,8.68 3.72,11.57 12.46,9.99c9.7,-1.47 19.26,-3.06 28.92,-4.24c3.76,-0.36 9.31,-0.81 11.73,2.5l0.08,0.21l0.02,0.01z" id="svg_15"></path>
    </g>
    <polygon class="cls-1" id="svg_16" points="216.48001098632812,358.27001953125 208.55999755859375,347 197.0500030517578,349.8499755859375 194.66000366210938,340.17999267578125 217.1099853515625,334.6300048828125 219.5,344.29998779296875 215.26998901367188,346.83001708984375 223.67001342773438,353.52001953125 226.94000244140625,366.75 216.48001098632812,358.27001953125"></polygon>
    <polygon class="cls-1" id="svg_17" points="103.13999938964844,364.20001220703125 115.97999572753906,359.219970703125 115.97999572753906,347.3599853515625 125.92999267578125,347.3599853515625 125.92999267578125,370.489990234375 115.97999572753906,370.489990234375 114.53999328613281,365.77001953125 106.02000427246094,372.32000732421875 92.38999938964844,372.32000732421875 103.13999938964844,364.20001220703125"></polygon>
    <path class="cls-1" d="m125.55,356.89l-5.28,0c0,-1.73 -4.51,-7.35 -7.5,-11.08c-7.23,-9.02 -14.72,-18.34 -10.15,-24.52c5.97,-8.07 31.81,-15.94 34.73,-16.82l1.51,5.06c-7.48,2.23 -27.82,9.25 -31.99,14.89c-2.15,2.91 5.47,12.4 10.02,18.07c5.37,6.69 8.66,10.97 8.66,14.38l0,0.02z" id="svg_18"></path>
    <path class="cls-1" d="m178.33,355.98c-2.02,0 -3.91,-0.59 -5.61,-2.05c-2.39,-2.06 -5.36,-7.11 -3.63,-27.04c0.91,-10.46 2.69,-19.97 2.76,-20.37l5.19,0.97c-3.36,17.87 -4.64,39.18 -0.87,42.44c2.68,2.31 8.7,-1.23 14.01,-4.36c5.42,-3.2 10.54,-6.22 15.07,-5.5l-0.83,5.21c-2.64,-0.43 -7.38,2.37 -11.55,4.83c-4.75,2.8 -9.95,5.86 -14.54,5.86l0,0.01z" id="svg_19"></path>
  </g>
</svg>
